# xmcd CD database file
#
# Track frame offsets:
#	150
#	25085
#	46098
#	78697
#	98104
#	130934
#	153539
#	171514
#
# Disc length: 2654 seconds
#
# Revision: 1
# Processed by: cddbd v1.5.2PL0 Copyright (c) Steve Scherf et al.
# Submitted via: CDex 1.70beta2
#
DISCID=610a5c08
DTITLE=Jakob Bro - Balladeering
DYEAR=2009
DGENRE=Jazz
TTITLE0=Weightless
TTITLE1=Evening Song
TTITLE2=VRAA
TTITLE3=Starting Point (Acoustic Version)
TTITLE4=Greenland
TTITLE5=Terrace Place
TTITLE6=Sort
TTITLE7=Starting Point (Electric Version)
EXTD=YEAR: 2009
EXTT0=
EXTT1=
EXTT2=
EXTT3=
EXTT4=
EXTT5=
EXTT6=
EXTT7=
PLAYORDER=
